# AST/ASF file generated using VICON BodyLanguage
# -----------------------------------------------
:version 1.10
:name VICON
:units
  mass 1.0
  length 0.45
  angle deg
:documentation
   .ast/.asf automatically generated from VICON data using
   VICON BodyBuilder and BodyLanguage model FoxedUp or BRILLIANT.MOD
:root
   order TX TY TZ RX RY RZ
   axis XYZ
   position 0 0 0  
   orientation 0 0 0 
:bonedata
  begin
     id 1 
     name lhipjoint
     direction 0.541323 -0.757556 0.364798 
     length 2.47576 
     axis 0 0 0  XYZ
  end
  begin
     id 2 
     name lfemur
     direction 0.34202 -0.939693 0  
     length 7.46493  
     axis 0 0 20  XYZ
    dof rx ry rz
    limits (-160.0 20.0)
           (-70.0 70.0)
           (-60.0 70.0)
  end
  begin
     id 3 
     name ltibia
     direction 0.34202 -0.939693 0   
     length 7.73805   
     axis 0 0 20   XYZ
    dof rx
    limits (-10.0 170.0)
  end
  begin
     id 4 
     name lfoot
     direction 0.107174 -0.294458 0.949636   
     length 2.25864   
     axis -90 7.62852e-016 20   XYZ
    dof rx rz
    limits (-45.0 90.0)
           (-70.0 20.0)
  end
  begin
     id 5 
     name ltoes
     direction 1.53606e-011 -4.21934e-011 1   
     length 1.12451   
     axis -90 7.62852e-016 20   XYZ
    dof rx
    limits (-90.0 20.0)
  end
  begin
     id 6 
     name rhipjoint
     direction -0.524745 -0.766967 0.36933   
     length 2.44538  
     axis 0 0 0  XYZ 
  end
  begin
     id 7 
     name rfemur
     direction -0.34202 -0.939693 0   
     length 7.61604   
     axis 0 0 -20   XYZ
    dof rx ry rz
    limits (-160.0 20.0)
           (-70.0 70.0)
           (-70.0 60.0)
  end
  begin
     id 8 
     name rtibia
     direction -0.34202 -0.939693 0   
     length 7.61056   
     axis 0 0 -20   XYZ
    dof rx
    limits (-10.0 170.0)
 end
 begin
     id 9 
     name rfoot
     direction -0.12616 -0.346623 0.929482   
     length 2.46372  
     axis -90 -7.62852e-016 -20   XYZ
    dof rx rz
    limits (-45.0 90.0)
           (-20.0 70.0)
  end
  begin
     id 10 
     name rtoes
     direction -1.53531e-011 -4.22004e-011 1   
     length 1.21611   
     axis -90 -7.62852e-016 -20   XYZ
    dof rx
    limits (-90.0 20.0)
  end
  begin
     id 11 
     name lowerback
     direction -0.000778023 0.997293 -0.0735223   
     length 2.06139   
     axis 0 0 0   XYZ
    dof rx ry rz
    limits (-20.0 45.0)
           (-30.0 30.0)
           (-30.0 30.0)
  end
  begin
     id 12 
     name upperback
     direction 0.0222598 0.999722 -0.0078355   
     length 2.06383   
     axis 0 0 0   XYZ
    dof rx ry rz
    limits (-20.0 45.0)
           (-30.0 30.0)
           (-30.0 30.0)
  end
  begin
     id 13 
     name thorax
     direction 0.0219654 0.999405 0.0265994   
     length 2.07163   
     axis 0 0 0   XYZ
    dof rx ry rz
    limits (-20.0 45.0)
           (-30.0 30.0)
           (-30.0 30.0)
  end
  begin
     id 14 
     name lowerneck
     direction 0.0213282 0.988147 0.15202   
     length 1.75969   
     axis 0 0 0   XYZ
    dof rx ry rz
    limits (-20.0 45.0)
           (-30.0 30.0)
           (-30.0 30.0)
  end
  begin
     id 15 
     name upperneck
     direction -0.0546456 0.982624 -0.177379   
     length 1.79244   
     axis 0 0 0   XYZ
    dof rx ry rz
    limits (-20.0 45.0)
           (-30.0 30.0)
           (-30.0 30.0)
  end
  begin
     id 16
     name head
     direction -0.0199987 0.996855 -0.076686  
     length 1.80555  
     axis 0 0 0   XYZ
    dof rx ry rz
    limits (-20.0 45.0)
           (-30.0 30.0)
           (-30.0 30.0)
  end
  begin
     id 17 
     name lclavicle
     direction 0.929565 0.363219 -0.063096  
     length 3.55722  
     axis 0 0 0   XYZ
    dof ry rz
    limits (-20.0 10.0)
           (0.0 20.0)
  end
  begin
     id 18 
     name lhumerus
     direction 1 -4.48993e-011 -2.36203e-027   
     length 4.92785   
     axis 180 -30 -90   XYZ
    dof rx ry rz
    limits (-60.0 90.0)
           (-90.0 90.0)
           (-90.0 90.0)
  end
  begin
     id 19
     name lradius
     direction 1 -4.48947e-011 2.02997e-027   
     length 3.44052   
     axis 180 -30 -90   XYZ
    dof rx
    limits (-10.0 170.0)
  end
  begin
     id 20
     name lwrist
     direction 1 -4.48962e-011 1.45991e-027   
     length 1.72026   
     axis 1.49639e-024 90 90   XYZ
    dof ry
    limits (-180.0 0.0)
 end
  begin
     id 21 
     name lhand
     direction 1 -4.48984e-011 2.91906e-027   
     length 0.654326   
     axis -1.863e-015 90 90   XYZ
    dof rx rz
    limits (-90.0 90.0)
           (-45.0 45.0)
  end
  begin
     id 22 
     name lfingers
     direction 1 -4.48961e-011 5.83968e-027   
     length 0.527534   
     axis -3.72598e-015 90 90   XYZ
    dof rx
    limits (0.0 90.0)
  end
  begin
     id 23
     name lthumb
     direction 0.707107 -6.34963e-011 0.707107   
     length 0.757437   
     axis -90 45 -6.68868e-015   XYZ
    dof rx rz
    limits (-45.0 45.0)
           (-45.0 45.0)
  end
  begin
     id 24 
     name rclavicle
     direction -0.902944 0.422599 -0.0781198   
     length 3.54432  
     axis 0 0 0   XYZ 
    dof ry rz
    limits (-10.0 20.0)
           (-20.0 0.0)
  end
  begin
     id 25 
     name rhumerus
     direction -1 -4.48953e-011 -4.75835e-028  
     length 5.09181   
     axis 180 30 90   XYZ
    dof rx ry rz
    limits (-90.0 60.0)
           (-90.0 90.0)
           (-90.0 90.0)
  end
  begin
     id 26 
     name rradius
     direction -1 -4.48986e-011 -3.25889e-027   
     length 3.49865   
     axis 180 30 90   XYZ
    dof rx
    limits (-10.0 170.0)
  end
  begin
     id 27 
     name rwrist
     direction -1 -4.48963e-011 1.45989e-027   
     length 1.74933   
     axis 1.49639e-024 -90 -90   XYZ
    dof ry
    limits (-180.0 0.0)
  end
  begin
     id 28
     name rhand
     direction -1 -4.49003e-011 2.91844e-027   
     length 0.66641   
     axis -1.863e-015 -90 -90   XYZ
    dof rx rz
    limits (-90.0 90.0)
           (-45.0 45.0)
  end
  begin
     id 29
     name rfingers
     direction -1 -4.48973e-011 5.83886e-027   
     length 0.537277   
     axis -3.72598e-015 -90 -90   XYZ
    dof rx
    limits (0.0 90.0)
  end
  begin
     id 30
     name rthumb
     direction -0.707107 -6.34976e-011 0.707107   
     length 0.771425   
     axis -90 -45 6.68868e-015   XYZ
    dof rx rz
    limits (-45.0 45.0)
           (-45.0 45.0)
  end
:hierarchy
  begin
    root lhipjoint rhipjoint lowerback
    lhipjoint lfemur
    lfemur ltibia
    ltibia lfoot
    lfoot ltoes
    rhipjoint rfemur
    rfemur rtibia
    rtibia rfoot
    rfoot rtoes
    lowerback upperback
    upperback thorax
    thorax lowerneck lclavicle rclavicle
    lowerneck upperneck
    upperneck head
    lclavicle lhumerus
    lhumerus lradius
    lradius lwrist
    lwrist lhand lthumb
    lhand lfingers
    rclavicle rhumerus
    rhumerus rradius
    rradius rwrist
    rwrist rhand rthumb
    rhand rfingers
  end

#!OML:ASF H:\LiuWeirdWalks\Patient Classification 1\Patient 1\Session 1\male.ASF
:FULLY-SPECIFIED
:DEGREES
133
root 0.405368 17.9556 -31.4165 2.86139 2.87848 -2.50541
lowerback 2.85686 -0.570393 -0.611015
upperback -2.2043 -0.670536 3.35761
thorax -3.83047 -0.268534 3.85823
lowerneck -20.5059 2.1322 5.8228
upperneck 26.5796 3.26118 -7.24585
head 12.4347 1.08046 -3.21442
rclavicle -3.2287e-015 3.10104e-014
rhumerus -39.3731 -12.2724 -69.211
rradius 28.2312
rwrist -3.60866
rhand -15.5576 -2.23804
rfingers 7.12502
rthumb 10.6269 -31.9493
lclavicle -3.2287e-015 3.10104e-014
lhumerus -42.3541 7.6041 78.8821
lradius 32.8424
lwrist 5.22467
lhand -10.4389 1.94094
lfingers 7.12502
lthumb 15.561 31.3349
rfemur -8.57743 -1.44646 21.4847
rtibia 28.1008
rfoot -14.2726 -20.2446
rtoes -2.6911
lfemur -8.11399 -2.22482 -19.9423
ltibia 25.7332
lfoot -12.8019 15.2576
ltoes -6.3879
134
root 0.416431 17.9527 -31.4071 2.85719 2.86021 -2.57279
lowerback 2.86073 -0.535131 -0.532782
upperback -2.1365 -0.621244 3.36192
thorax -3.76647 -0.247437 3.81443
lowerneck -20.7348 2.15714 5.94783
upperneck 26.5996 3.27519 -7.35139
head 12.495 1.0815 -3.27621
rclavicle 1.39173e-014 2.38542e-015
rhumerus -39.2876 -12.3955 -69.2015
rradius 28.2212
rwrist -3.56882
rhand -15.5524 -2.23168
rfingers 7.12502
rthumb 10.632 -31.9427
lclavicle 1.39173e-014 2.38542e-015
lhumerus -42.134 7.5566 78.9161
lradius 32.7391
lwrist 5.2208
lhand -10.4617 1.88155
lfingers 7.12502
lthumb 15.539 31.2772
rfemur -8.54068 -1.38513 21.5284
rtibia 28.0967
rfoot -14.2965 -20.2977
rtoes -2.69353
lfemur -8.11931 -2.16808 -19.9024
ltibia 25.8106
lfoot -12.876 15.2361
ltoes -6.4077
135
root 0.427235 17.9499 -31.3983 2.86339 2.85274 -2.65159
lowerback 2.86431 -0.541642 -0.463575
upperback -2.12813 -0.62536 3.40732
thorax -3.75984 -0.250828 3.82279
lowerneck -20.7436 2.20934 6.05109
upperneck 26.5456 3.35422 -7.49233
head 12.4869 1.10845 -3.33394
rclavicle -4.21874e-015 1.19271e-014
rhumerus -39.2554 -12.37 -69.1714
rradius 28.1995
rwrist -3.52078
rhand -15.5607 -2.23275
rfingers 7.12502
rthumb 10.6239 -31.9442
lclavicle -4.21874e-015 1.19271e-014
lhumerus -42.1 7.61976 78.9306
lradius 32.6963
lwrist 5.21457
lhand -10.4753 1.81522
lfingers 7.12502
lthumb 15.5259 31.2119
rfemur -8.51935 -1.31276 21.5891
rtibia 28.0971
rfoot -14.313 -20.3682
rtoes -2.69027
lfemur -8.142 -2.11441 -19.8467
ltibia 25.8882
lfoot -12.9411 15.206
ltoes -6.42831
136
root 0.438507 17.9473 -31.3893 2.88175 2.86704 -2.70064
lowerback 2.85622 -0.575201 -0.418158
upperback -2.17985 -0.665281 3.45374
thorax -3.80624 -0.270228 3.84865
lowerneck -20.5254 2.23827 6.08458
upperneck 26.4391 3.41926 -7.58846
head 12.4084 1.13226 -3.36191
rclavicle -1.45361e-015 -1.35174e-014
rhumerus -39.323 -12.2439 -69.1344
rradius 28.1923
rwrist -3.49667
rhand -15.5753 -2.2477
rfingers 7.12502
rthumb 10.6098 -31.9599
lclavicle -1.45361e-015 -1.35174e-014
lhumerus -42.2366 7.71008 78.92
lradius 32.6981
lwrist 5.20529
lhand -10.4727 1.7413
lfingers 7.12502
lthumb 15.5284 31.1378
rfemur -8.51435 -1.26197 21.6143
rtibia 28.1152
rfoot -14.34 -20.4362
rtoes -2.69045
lfemur -8.16971 -2.09492 -19.8267
ltibia 25.9491
lfoot -12.9915 15.1844
ltoes -6.43919
137
root 0.4509 17.9448 -31.3792 2.90398 2.9007 -2.70196
lowerback 2.83361 -0.626376 -0.404063
upperback -2.25798 -0.730068 3.48935
thorax -3.86986 -0.300892 3.88271
lowerneck -20.1822 2.23731 6.03597
upperneck 26.3083 3.45699 -7.62753
head 12.2899 1.1456 -3.35692
rclavicle -4.73045e-015 -1.35174e-014
rhumerus -39.4437 -12.0472 -69.1018
rradius 28.2052
rwrist -3.51722
rhand -15.5815 -2.26214
rfingers 7.12502
rthumb 10.6039 -31.9746
lclavicle -4.73045e-015 -1.35174e-014
lhumerus -42.4701 7.81572 78.8971
lradius 32.744
lwrist 5.20662
lhand -10.4697 1.70974
lfingers 7.12502
lthumb 15.5313 31.106
rfemur -8.51465 -1.25069 21.5791
rtibia 28.1536
rfoot -14.3809 -20.4886
rtoes -2.70138
lfemur -8.18167 -2.12132 -19.8677
ltibia 25.984
lfoot -13.0309 15.1847
ltoes -6.4333
138
root 0.464129 17.9425 -31.3688 2.94 2.92962 -2.66472
lowerback 2.80573 -0.668293 -0.414471
upperback -2.34075 -0.784334 3.50269
thorax -3.93598 -0.32587 3.90679
lowerneck -19.8364 2.21763 5.93704
upperneck 26.1708 3.46296 -7.59784
head 12.1635 1.14894 -3.32187
rclavicle 8.57259e-016 -2.54444e-014
rhumerus -39.579 -11.8646 -69.0798
rradius 28.2361
rwrist -3.58222
rhand -15.6042 -2.31377
rfingers 7.12502
rthumb 10.582 -32.0274
lclavicle 8.57259e-016 -2.54444e-014
lhumerus -42.7027 7.88573 78.8775
lradius 32.7997
lwrist 5.2306
lhand -10.4639 1.70518
lfingers 7.12502
lthumb 15.5369 31.101
rfemur -8.53906 -1.25683 21.4943
rtibia 28.2156
rfoot -14.4192 -20.523
rtoes -2.74467
lfemur -8.18908 -2.17935 -19.9591
ltibia 25.9905
lfoot -13.0606 15.2136
ltoes -6.39587
139
root 0.478436 17.9401 -31.3574 2.96932 2.96456 -2.59991
lowerback 2.78377 -0.705276 -0.432222
upperback -2.42543 -0.832998 3.49409
thorax -4.00797 -0.34806 3.91196
lowerneck -19.4839 2.17426 5.80814
upperneck 26.052 3.43248 -7.5253
head 12.039 1.13869 -3.27194
rclavicle -1.06971e-014 3.18055e-015
rhumerus -39.7388 -11.6816 -69.0774
rradius 28.2943
rwrist -3.71543
rhand -15.6536 -2.43316
rfingers 7.12502
rthumb 10.5343 -32.1492
lclavicle -1.06971e-014 3.18055e-015
lhumerus -42.9552 7.91609 78.8567
lradius 32.8864
lwrist 5.25903
lhand -10.4666 1.76321
lfingers 7.12502
lthumb 15.5343 31.1592
rfemur -8.55904 -1.28793 21.3724
rtibia 28.2938
rfoot -14.46 -20.546
rtoes -2.81173
lfemur -8.17141 -2.27407 -20.0892
ltibia 25.9776
lfoot -13.0872 15.2669
ltoes -6.33372
140
root 0.493112 17.9377 -31.3462 3.01169 2.99628 -2.52719
lowerback 2.77634 -0.693814 -0.445951
upperback -2.44121 -0.819533 3.45128
thorax -4.02139 -0.341289 3.87434
lowerneck -19.4522 2.10577 5.702
upperneck 26.0246 3.33881 -7.42418
head 12.0099 1.09981 -3.2291
rclavicle -6.96368e-015 -1.35174e-014
rhumerus -39.7978 -11.6832 -69.0839
rradius 28.3664
rwrist -3.88084
rhand -15.7114 -2.57596
rfingers 7.12502
rthumb 10.4785 -32.2948
lclavicle -6.96368e-015 -1.35174e-014
lhumerus -42.9706 7.82711 78.8881
lradius 32.9195
lwrist 5.28816
lhand -10.4999 1.81292
lfingers 7.12502
lthumb 15.5022 31.2114
rfemur -8.5996 -1.3246 21.2389
rtibia 28.3788
rfoot -14.4961 -20.5612
rtoes -2.88769
lfemur -8.16687 -2.36448 -20.2293
ltibia 25.962
lfoot -13.1168 15.3152
ltoes -6.26446
141
root 0.508329 17.9351 -31.3348 3.04873 3.00713 -2.47742
lowerback 2.78215 -0.669793 -0.439811
upperback -2.4299 -0.788659 3.41405
thorax -4.01554 -0.326823 3.83001
lowerneck -19.5544 2.09379 5.73404
upperneck 26.0451 3.30883 -7.42978
head 12.0368 1.08698 -3.24254
rclavicle -1.47287e-014 3.33958e-014
rhumerus -39.8048 -11.717 -69.094
rradius 28.4352
rwrist -4.04217
rhand -15.7614 -2.69759
rfingers 7.12502
rthumb 10.4303 -32.4189
lclavicle -1.47287e-014 3.33958e-014
lhumerus -42.9048 7.73296 78.9358
lradius 32.9294
lwrist 5.32206
lhand -10.5218 1.86959
lfingers 7.12502
lthumb 15.4811 31.2697
rfemur -8.63795 -1.34633 21.1285
rtibia 28.4618
rfoot -14.5229 -20.5721
rtoes -2.96606
lfemur -8.16056 -2.44956 -20.3474
ltibia 25.9585
lfoot -13.1551 15.3788
ltoes -6.1984
142
root 0.523643 17.9321 -31.3225 3.06604 2.99431 -2.46873
lowerback 2.79462 -0.640803 -0.400029
upperback -2.40726 -0.749108 3.39471
thorax -4.00245 -0.308905 3.78473
lowerneck -19.6821 2.09598 5.78975
upperneck 26.0785 3.29908 -7.46319
head 12.0765 1.0815 -3.26799
rclavicle 6.98852e-015 3.97569e-015
rhumerus -39.8024 -11.7505 -69.0908
rradius 28.494
rwrist -4.15736
rhand -15.8004 -2.76666
rfingers 7.12502
rthumb 10.3927 -32.4898
lclavicle 6.98852e-015 3.97569e-015
lhumerus -42.8168 7.65354 78.9883
lradius 32.9103
lwrist 5.34803
lhand -10.541 1.90227
lfingers 7.12502
lthumb 15.4626 31.3039
rfemur -8.65682 -1.32439 21.0657
rtibia 28.5462
rfoot -14.5557 -20.6003
rtoes -3.03597
lfemur -8.14266 -2.50473 -20.4192
ltibia 25.9804
lfoot -13.2167 15.4392
ltoes -6.14002
143
root 0.538343 17.9288 -31.3105 3.07786 2.98068 -2.49959
lowerback 2.82747 -0.633168 -0.339486
upperback -2.40692 -0.735035 3.40862
thorax -4.02225 -0.303166 3.76477
lowerneck -19.7472 2.12785 5.84984
upperneck 26.0996 3.34066 -7.52245
head 12.1037 1.09723 -3.29523
rclavicle 3.07495e-015 3.57812e-014
rhumerus -39.804 -11.7393 -69.0592
rradius 28.5137
rwrist -4.1787
rhand -15.8068 -2.74738
rfingers 7.12502
rthumb 10.3866 -32.4708
lclavicle 3.07495e-015 3.57812e-014
lhumerus -42.7828 7.63961 79.0297
lradius 32.8854
lwrist 5.36981
lhand -10.5338 1.90446
lfingers 7.12502
lthumb 15.4696 31.3055
rfemur -8.67386 -1.26306 21.0551
rtibia 28.6321
rfoot -14.5817 -20.6618
rtoes -3.10729
lfemur -8.13335 -2.53383 -20.4405
ltibia 26.0213
lfoot -13.2893 15.4783
ltoes -6.09075
144
root 0.553345 17.924 -31.2975 3.07312 2.95901 -2.5355
lowerback 2.84264 -0.62689 -0.269006
upperback -2.40601 -0.72253 3.42339
thorax -4.0314 -0.298621 3.73982
lowerneck -19.7441 2.1428 5.86757
upperneck 26.0944 3.36167 -7.54094
head 12.1035 1.10612 -3.30181
rclavicle -4.31735e-015 -2.14687e-014
rhumerus -39.8196 -11.7604 -68.9959
rradius 28.4947
rwrist -4.08759
rhand -15.776 -2.63057
rfingers 7.12502
rthumb 10.4163 -32.3525
lclavicle -4.31735e-015 -2.14687e-014
lhumerus -42.7903 7.62543 79.0667
lradius 32.8774
lwrist 5.40781
lhand -10.4924 1.88808
lfingers 7.12502
lthumb 15.5094 31.286
rfemur -8.67591 -1.18618 21.0489
rtibia 28.7345
rfoot -14.6171 -20.7275
rtoes -3.18545
lfemur -8.10606 -2.55758 -20.4589
ltibia 26.0721
lfoot -13.3695 15.5228
ltoes -6.03096
